<svg width="22" height="30" viewBox="0 0 22 30" fill="none" xmlns="http://www.w3.org/2000/svg">
<path d="M5.82388 20.136C5.82388 19.7413 5.91988 19.464 6.11188 19.304C6.30388 19.144 6.53321 19.064 6.79988 19.064C7.07721 19.064 7.31188 19.144 7.50388 19.304C7.70654 19.464 7.80788 19.7413 7.80788 20.136C7.80788 20.52 7.70654 20.7973 7.50388 20.968C7.31188 21.1387 7.07721 21.224 6.79988 21.224C6.53321 21.224 6.30388 21.1387 6.11188 20.968C5.91988 20.7973 5.82388 20.52 5.82388 20.136ZM10.0159 20.136C10.0159 19.7413 10.1119 19.464 10.3039 19.304C10.4959 19.144 10.7252 19.064 10.9919 19.064C11.2692 19.064 11.5039 19.144 11.6959 19.304C11.8985 19.464 11.9999 19.7413 11.9999 20.136C11.9999 20.52 11.8985 20.7973 11.6959 20.968C11.5039 21.1387 11.2692 21.224 10.9919 21.224C10.7252 21.224 10.4959 21.1387 10.3039 20.968C10.1119 20.7973 10.0159 20.52 10.0159 20.136ZM14.1919 20.136C14.1919 19.7413 14.2879 19.464 14.4799 19.304C14.6719 19.144 14.9012 19.064 15.1679 19.064C15.4452 19.064 15.6799 19.144 15.8719 19.304C16.0745 19.464 16.1759 19.7413 16.1759 20.136C16.1759 20.52 16.0745 20.7973 15.8719 20.968C15.6799 21.1387 15.4452 21.224 15.1679 21.224C14.9012 21.224 14.6719 21.1387 14.4799 20.968C14.2879 20.7973 14.1919 20.52 14.1919 20.136Z" fill="#007ABC"/>
</svg>
