<svg width="198" height="20" viewBox="0 0 198 20" fill="none" xmlns="http://www.w3.org/2000/svg">
<mask id="path-1-inside-1_7780_75401" fill="white">
<path fill-rule="evenodd" clip-rule="evenodd" d="M96.556 0.658404C96.2369 -0.219468 94.9953 -0.219468 94.6763 0.658403L91.2682 10.0353H8C3.58172 10.0353 0 13.617 0 18.0353V19.0232H198V18.0353C198 13.617 194.418 10.0353 190 10.0353H99.9641L96.556 0.658404Z"/>
</mask>
<path fill-rule="evenodd" clip-rule="evenodd" d="M96.556 0.658404C96.2369 -0.219468 94.9953 -0.219468 94.6763 0.658403L91.2682 10.0353H8C3.58172 10.0353 0 13.617 0 18.0353V19.0232H198V18.0353C198 13.617 194.418 10.0353 190 10.0353H99.9641L96.556 0.658404Z" fill="white"/>
<path d="M94.6763 0.658403L95.6161 1V0.999998L94.6763 0.658403ZM96.556 0.658404L95.6161 0.999998V1L96.556 0.658404ZM91.2682 10.0353V11.0353H91.9687L92.208 10.3769L91.2682 10.0353ZM0 19.0232H-1V20.0232H0V19.0232ZM198 19.0232V20.0232H199V19.0232H198ZM99.9641 10.0353L99.0242 10.3769L99.2635 11.0353H99.9641V10.0353ZM95.6161 0.999998L95.6161 0.999998L97.4958 0.316809C96.8577 -1.43894 94.3746 -1.43894 93.7364 0.316809L95.6161 0.999998ZM92.208 10.3769L95.6161 1L93.7364 0.316807L90.3283 9.69371L92.208 10.3769ZM8 11.0353H91.2682V9.03531H8V11.0353ZM1 18.0353C1 14.1693 4.13401 11.0353 8 11.0353V9.03531C3.02944 9.03531 -1 13.0647 -1 18.0353H1ZM1 19.0232V18.0353H-1V19.0232H1ZM198 18.0232H0V20.0232H198V18.0232ZM197 18.0353V19.0232H199V18.0353H197ZM190 11.0353C193.866 11.0353 197 14.1693 197 18.0353H199C199 13.0647 194.971 9.03531 190 9.03531V11.0353ZM99.9641 11.0353H190V9.03531H99.9641V11.0353ZM95.6161 1L99.0242 10.3769L100.904 9.69371L97.4958 0.316807L95.6161 1Z" fill="#007ABC" mask="url(#path-1-inside-1_7780_75401)"/>
</svg>
