<svg width="82" height="92" viewBox="0 0 82 68" fill="none" xmlns="http://www.w3.org/2000/svg">
    <g filter="url(#filter0_dddd_4837_67122)">
        <path d="M10.9683 30.1531C9.38782 28.561 8.13561 26.6722 7.28315 24.5946C6.43069 22.5171 5.99469 20.2915 6.00005 18.0449C6.00541 15.7983 6.45202 13.5748 7.31438 11.5014C8.17674 9.42793 9.43795 7.54519 11.026 5.96068C14.2573 2.77168 18.6121 0.989216 23.1456 1.00005C27.679 1.01088 32.0254 2.81414 35.2415 6.01855L41.0113 11.8252L46.8277 6.04971C50.0603 2.86121 54.4163 1.07992 58.9503 1.09242C63.4843 1.10492 67.8304 2.9102 71.0455 6.11647C74.2292 9.3362 76.0108 13.6901 76 18.2246C75.9891 22.7591 74.1868 27.1044 70.9878 30.3089L40.8959 61L10.9683 30.1531Z" fill="#8e8f91"/>
    </g>
    <path d="M71.0429 6.02601C67.8252 2.81684 63.4766 1.0109 58.9408 1.00005C54.405 0.9892 50.048 2.77431 46.815 5.96805L41 11.7632V61L70.9852 30.2543C74.1859 27.0452 75.9891 22.6934 76 18.1521C76.0108 13.6109 74.2283 9.25051 71.0429 6.02601Z" fill="#8e8f91"/>
    <defs>
        <filter id="filter0_dddd_4837_67122" x="0" y="0" width="82" height="82" filterUnits="userSpaceOnUse" color-interpolation-filters="sRGB">
            <feFlood flood-opacity="0" result="BackgroundImageFix"/>
            <feColorMatrix in="SourceAlpha" type="matrix" values="0 0 0 0 0 0 0 0 0 0 0 0 0 0 0 0 0 0 127 0" result="hardAlpha"/>
            <feOffset dy="1"/>
            <feGaussianBlur stdDeviation="1"/>
            <feColorMatrix type="matrix" values="0 0 0 0 0 0 0 0 0 0 0 0 0 0 0 0 0 0 0.1 0"/>
            <feBlend mode="normal" in2="BackgroundImageFix" result="effect1_dropShadow_4837_67122"/>
            <feColorMatrix in="SourceAlpha" type="matrix" values="0 0 0 0 0 0 0 0 0 0 0 0 0 0 0 0 0 0 127 0" result="hardAlpha"/>
            <feOffset dy="4"/>
            <feGaussianBlur stdDeviation="2"/>
            <feColorMatrix type="matrix" values="0 0 0 0 0 0 0 0 0 0 0 0 0 0 0 0 0 0 0.09 0"/>
            <feBlend mode="normal" in2="effect1_dropShadow_4837_67122" result="effect2_dropShadow_4837_67122"/>
            <feColorMatrix in="SourceAlpha" type="matrix" values="0 0 0 0 0 0 0 0 0 0 0 0 0 0 0 0 0 0 127 0" result="hardAlpha"/>
            <feOffset dy="8"/>
            <feGaussianBlur stdDeviation="2.5"/>
            <feColorMatrix type="matrix" values="0 0 0 0 0 0 0 0 0 0 0 0 0 0 0 0 0 0 0.05 0"/>
            <feBlend mode="normal" in2="effect2_dropShadow_4837_67122" result="effect3_dropShadow_4837_67122"/>
            <feColorMatrix in="SourceAlpha" type="matrix" values="0 0 0 0 0 0 0 0 0 0 0 0 0 0 0 0 0 0 127 0" result="hardAlpha"/>
            <feOffset dy="15"/>
            <feGaussianBlur stdDeviation="3"/>
            <feColorMatrix type="matrix" values="0 0 0 0 0 0 0 0 0 0 0 0 0 0 0 0 0 0 0.01 0"/>
            <feBlend mode="normal" in2="effect3_dropShadow_4837_67122" result="effect4_dropShadow_4837_67122"/>
            <feBlend mode="normal" in="SourceGraphic" in2="effect4_dropShadow_4837_67122" result="shape"/>
        </filter>
    </defs>
</svg>
