<svg width="80" height="87" viewBox="0 0 80 87" fill="none" xmlns="http://www.w3.org/2000/svg">
<g filter="url(#filter0_ddd_20480_59465)">
<path fill-rule="evenodd" clip-rule="evenodd" d="M42.4319 7.31087C40.927 6.45627 39.073 6.45627 37.5681 7.31087L12.4319 21.5855C10.927 22.4401 10 24.0194 10 25.7286V54.2779C10 55.9871 10.927 57.5664 12.4319 58.421L37.5681 72.6956C39.073 73.5502 40.927 73.5502 42.4319 72.6956L67.5681 58.421C69.073 57.5664 70 55.9871 70 54.2779V25.7286C70 24.0194 69.073 22.4401 67.5681 21.5855L42.4319 7.31087Z" fill="#40A900"/>
</g>
<mask id="mask0_20480_59465" style="mask-type:alpha" maskUnits="userSpaceOnUse" x="10" y="6" width="60" height="68">
<path fill-rule="evenodd" clip-rule="evenodd" d="M42.4319 7.31087C40.927 6.45627 39.073 6.45627 37.5681 7.31087L12.4319 21.5855C10.927 22.4401 10 24.0194 10 25.7286V54.2779C10 55.9871 10.927 57.5664 12.4319 58.421L37.5681 72.6956C39.073 73.5502 40.927 73.5502 42.4319 72.6956L67.5681 58.421C69.073 57.5664 70 55.9871 70 54.2779V25.7286C70 24.0194 69.073 22.4401 67.5681 21.5855L42.4319 7.31087Z" fill="#6E6E6E"/>
</mask>
<g mask="url(#mask0_20480_59465)">
<g filter="url(#filter1_ddd_20480_59465)">
<path fill-rule="evenodd" clip-rule="evenodd" d="M42.4319 7.30892C40.927 6.45432 39.073 6.45432 37.5681 7.30892L12.4319 21.5835C10.927 22.4381 10 24.0175 10 25.7267V54.2759C10 55.9851 10.927 57.5645 12.4319 58.4191L37.5681 72.6937C39.073 73.5483 40.927 73.5483 42.4319 72.6937L67.5681 58.4191C69.073 57.5645 70 55.9851 70 54.2759V25.7267C70 24.0175 69.073 22.4381 67.5681 21.5835L42.4319 7.30892Z" fill="url(#paint0_linear_20480_59465)"/>
</g>
<rect x="39.7998" y="2.23438" width="54" height="71" fill="url(#paint1_linear_20480_59465)"/>
<g filter="url(#filter2_d_20480_59465)">
<path fill-rule="evenodd" clip-rule="evenodd" d="M41.8449 14.7343C40.6912 14.0677 39.2697 14.0677 38.116 14.7343L18.8449 25.8685C17.6912 26.5351 16.9805 27.767 16.9805 29.1002V51.3686C16.9805 52.7017 17.6912 53.9337 18.8449 54.6002L38.116 65.7344C39.2697 66.401 40.6912 66.401 41.8449 65.7344L61.116 54.6002C62.2697 53.9337 62.9805 52.7018 62.9805 51.3686V29.1002C62.9805 27.767 62.2697 26.5351 61.116 25.8685L41.8449 14.7343Z" fill="url(#paint2_linear_20480_59465)"/>
</g>
<mask id="mask1_20480_59465" style="mask-type:alpha" maskUnits="userSpaceOnUse" x="16" y="14" width="47" height="53">
<path fill-rule="evenodd" clip-rule="evenodd" d="M41.8449 14.7343C40.6912 14.0677 39.2697 14.0677 38.116 14.7343L18.8449 25.8685C17.6912 26.5351 16.9805 27.767 16.9805 29.1002V51.3686C16.9805 52.7017 17.6912 53.9337 18.8449 54.6002L38.116 65.7344C39.2697 66.401 40.6912 66.401 41.8449 65.7344L61.116 54.6002C62.2697 53.9337 62.9805 52.7018 62.9805 51.3686V29.1002C62.9805 27.767 62.2697 26.5351 61.116 25.8685L41.8449 14.7343Z" fill="#007ABC"/>
</mask>
<g mask="url(#mask1_20480_59465)">
<rect x="39.7998" y="2.23438" width="54" height="71" fill="url(#paint3_linear_20480_59465)"/>
</g>
</g>
<defs>
<filter id="filter0_ddd_20480_59465" x="5" y="5.66992" width="70" height="80.666" filterUnits="userSpaceOnUse" color-interpolation-filters="sRGB">
<feFlood flood-opacity="0" result="BackgroundImageFix"/>
<feColorMatrix in="SourceAlpha" type="matrix" values="0 0 0 0 0 0 0 0 0 0 0 0 0 0 0 0 0 0 127 0" result="hardAlpha"/>
<feOffset dy="1"/>
<feGaussianBlur stdDeviation="1"/>
<feColorMatrix type="matrix" values="0 0 0 0 0 0 0 0 0 0 0 0 0 0 0 0 0 0 0.1 0"/>
<feBlend mode="normal" in2="BackgroundImageFix" result="effect1_dropShadow_20480_59465"/>
<feColorMatrix in="SourceAlpha" type="matrix" values="0 0 0 0 0 0 0 0 0 0 0 0 0 0 0 0 0 0 127 0" result="hardAlpha"/>
<feOffset dy="4"/>
<feGaussianBlur stdDeviation="2"/>
<feColorMatrix type="matrix" values="0 0 0 0 0 0 0 0 0 0 0 0 0 0 0 0 0 0 0.09 0"/>
<feBlend mode="normal" in2="effect1_dropShadow_20480_59465" result="effect2_dropShadow_20480_59465"/>
<feColorMatrix in="SourceAlpha" type="matrix" values="0 0 0 0 0 0 0 0 0 0 0 0 0 0 0 0 0 0 127 0" result="hardAlpha"/>
<feOffset dy="8"/>
<feGaussianBlur stdDeviation="2.5"/>
<feColorMatrix type="matrix" values="0 0 0 0 0 0 0 0 0 0 0 0 0 0 0 0 0 0 0.05 0"/>
<feBlend mode="normal" in2="effect2_dropShadow_20480_59465" result="effect3_dropShadow_20480_59465"/>
<feBlend mode="normal" in="SourceGraphic" in2="effect3_dropShadow_20480_59465" result="shape"/>
</filter>
<filter id="filter1_ddd_20480_59465" x="5" y="5.66797" width="70" height="80.666" filterUnits="userSpaceOnUse" color-interpolation-filters="sRGB">
<feFlood flood-opacity="0" result="BackgroundImageFix"/>
<feColorMatrix in="SourceAlpha" type="matrix" values="0 0 0 0 0 0 0 0 0 0 0 0 0 0 0 0 0 0 127 0" result="hardAlpha"/>
<feOffset dy="1"/>
<feGaussianBlur stdDeviation="1"/>
<feColorMatrix type="matrix" values="0 0 0 0 0 0 0 0 0 0 0 0 0 0 0 0 0 0 0.1 0"/>
<feBlend mode="normal" in2="BackgroundImageFix" result="effect1_dropShadow_20480_59465"/>
<feColorMatrix in="SourceAlpha" type="matrix" values="0 0 0 0 0 0 0 0 0 0 0 0 0 0 0 0 0 0 127 0" result="hardAlpha"/>
<feOffset dy="4"/>
<feGaussianBlur stdDeviation="2"/>
<feColorMatrix type="matrix" values="0 0 0 0 0 0 0 0 0 0 0 0 0 0 0 0 0 0 0.09 0"/>
<feBlend mode="normal" in2="effect1_dropShadow_20480_59465" result="effect2_dropShadow_20480_59465"/>
<feColorMatrix in="SourceAlpha" type="matrix" values="0 0 0 0 0 0 0 0 0 0 0 0 0 0 0 0 0 0 127 0" result="hardAlpha"/>
<feOffset dy="8"/>
<feGaussianBlur stdDeviation="2.5"/>
<feColorMatrix type="matrix" values="0 0 0 0 0 0 0 0 0 0 0 0 0 0 0 0 0 0 0.05 0"/>
<feBlend mode="normal" in2="effect2_dropShadow_20480_59465" result="effect3_dropShadow_20480_59465"/>
<feBlend mode="normal" in="SourceGraphic" in2="effect3_dropShadow_20480_59465" result="shape"/>
</filter>
<filter id="filter2_d_20480_59465" x="-2.01953" y="-4.76562" width="84" height="90" filterUnits="userSpaceOnUse" color-interpolation-filters="sRGB">
<feFlood flood-opacity="0" result="BackgroundImageFix"/>
<feColorMatrix in="SourceAlpha" type="matrix" values="0 0 0 0 0 0 0 0 0 0 0 0 0 0 0 0 0 0 127 0" result="hardAlpha"/>
<feMorphology radius="9" operator="dilate" in="SourceAlpha" result="effect1_dropShadow_20480_59465"/>
<feOffset/>
<feGaussianBlur stdDeviation="5"/>
<feComposite in2="hardAlpha" operator="out"/>
<feColorMatrix type="matrix" values="0 0 0 0 0 0 0 0 0 0 0 0 0 0 0 0 0 0 0.22 0"/>
<feBlend mode="normal" in2="BackgroundImageFix" result="effect1_dropShadow_20480_59465"/>
<feBlend mode="normal" in="SourceGraphic" in2="effect1_dropShadow_20480_59465" result="shape"/>
</filter>
<linearGradient id="paint0_linear_20480_59465" x1="40" y1="6.66797" x2="40" y2="73.3346" gradientUnits="userSpaceOnUse">
<stop stop-color="#000016"/>
<stop offset="1" stop-color="#1E4C76"/>
</linearGradient>
<linearGradient id="paint1_linear_20480_59465" x1="66.7998" y1="2.23438" x2="66.7998" y2="73.2344" gradientUnits="userSpaceOnUse">
<stop stop-color="#1E4C76"/>
<stop offset="1" stop-color="#007ABC"/>
</linearGradient>
<linearGradient id="paint2_linear_20480_59465" x1="39.9805" y1="14.2344" x2="39.9805" y2="66.2344" gradientUnits="userSpaceOnUse">
<stop stop-color="#000016"/>
<stop offset="1" stop-color="#1E4C76"/>
</linearGradient>
<linearGradient id="paint3_linear_20480_59465" x1="66.7998" y1="2.23438" x2="66.7998" y2="73.2344" gradientUnits="userSpaceOnUse">
<stop stop-color="#000016"/>
<stop offset="1" stop-color="#1E4C76"/>
</linearGradient>
</defs>
</svg>
