<svg width="80" height="87" viewBox="0 0 80 87" fill="none" xmlns="http://www.w3.org/2000/svg">
<g filter="url(#filter0_ddd_20480_59435)">
<path fill-rule="evenodd" clip-rule="evenodd" d="M42.4319 7.30989C40.927 6.4553 39.073 6.4553 37.5681 7.30989L12.4319 21.5845C10.927 22.4391 10 24.0185 10 25.7277V54.2769C10 55.9861 10.927 57.5655 12.4319 58.4201L37.5681 72.6947C39.073 73.5493 40.927 73.5493 42.4319 72.6947L67.5681 58.4201C69.073 57.5655 70 55.9861 70 54.2769V25.7277C70 24.0185 69.073 22.4391 67.5681 21.5845L42.4319 7.30989Z" fill="#40A900"/>
</g>
<mask id="mask0_20480_59435" style="mask-type:alpha" maskUnits="userSpaceOnUse" x="10" y="6" width="60" height="68">
<path fill-rule="evenodd" clip-rule="evenodd" d="M42.4319 7.30989C40.927 6.4553 39.073 6.4553 37.5681 7.30989L12.4319 21.5845C10.927 22.4391 10 24.0185 10 25.7277V54.2769C10 55.9861 10.927 57.5655 12.4319 58.4201L37.5681 72.6947C39.073 73.5493 40.927 73.5493 42.4319 72.6947L67.5681 58.4201C69.073 57.5655 70 55.9861 70 54.2769V25.7277C70 24.0185 69.073 22.4391 67.5681 21.5845L42.4319 7.30989Z" fill="#6E6E6E"/>
</mask>
<g mask="url(#mask0_20480_59435)">
<g filter="url(#filter1_ddd_20480_59435)">
<path fill-rule="evenodd" clip-rule="evenodd" d="M42.4319 7.30696C40.927 6.45237 39.073 6.45237 37.5681 7.30696L12.4319 21.5816C10.927 22.4362 10 24.0155 10 25.7247V54.274C10 55.9832 10.927 57.5625 12.4319 58.4171L37.5681 72.6917C39.073 73.5463 40.927 73.5463 42.4319 72.6917L67.5681 58.4171C69.073 57.5625 70 55.9832 70 54.274V25.7247C70 24.0155 69.073 22.4362 67.5681 21.5816L42.4319 7.30696Z" fill="url(#paint0_linear_20480_59435)"/>
</g>
<rect x="39.7998" y="2.23438" width="54" height="71" fill="#00ACA0"/>
<g filter="url(#filter2_d_20480_59435)">
<path fill-rule="evenodd" clip-rule="evenodd" d="M41.8449 14.7343C40.6912 14.0677 39.2697 14.0677 38.116 14.7343L18.8449 25.8685C17.6912 26.5351 16.9805 27.767 16.9805 29.1002V51.3686C16.9805 52.7017 17.6912 53.9337 18.8449 54.6002L38.116 65.7344C39.2697 66.401 40.6912 66.401 41.8449 65.7344L61.116 54.6002C62.2697 53.9337 62.9805 52.7018 62.9805 51.3686V29.1002C62.9805 27.767 62.2697 26.5351 61.116 25.8685L41.8449 14.7343Z" fill="#0090DA"/>
</g>
<mask id="mask1_20480_59435" style="mask-type:alpha" maskUnits="userSpaceOnUse" x="16" y="14" width="47" height="53">
<path fill-rule="evenodd" clip-rule="evenodd" d="M41.8449 14.7343C40.6912 14.0677 39.2697 14.0677 38.116 14.7343L18.8449 25.8685C17.6912 26.5351 16.9805 27.767 16.9805 29.1002V51.3686C16.9805 52.7017 17.6912 53.9337 18.8449 54.6002L38.116 65.7344C39.2697 66.401 40.6912 66.401 41.8449 65.7344L61.116 54.6002C62.2697 53.9337 62.9805 52.7018 62.9805 51.3686V29.1002C62.9805 27.767 62.2697 26.5351 61.116 25.8685L41.8449 14.7343Z" fill="#0090DA"/>
</mask>
<g mask="url(#mask1_20480_59435)">
<rect x="39.7998" y="2" width="54" height="71" fill="#1EB4D0"/>
</g>
</g>
<defs>
<filter id="filter0_ddd_20480_59435" x="5" y="5.66895" width="70" height="80.667" filterUnits="userSpaceOnUse" color-interpolation-filters="sRGB">
<feFlood flood-opacity="0" result="BackgroundImageFix"/>
<feColorMatrix in="SourceAlpha" type="matrix" values="0 0 0 0 0 0 0 0 0 0 0 0 0 0 0 0 0 0 127 0" result="hardAlpha"/>
<feOffset dy="1"/>
<feGaussianBlur stdDeviation="1"/>
<feColorMatrix type="matrix" values="0 0 0 0 0 0 0 0 0 0 0 0 0 0 0 0 0 0 0.1 0"/>
<feBlend mode="normal" in2="BackgroundImageFix" result="effect1_dropShadow_20480_59435"/>
<feColorMatrix in="SourceAlpha" type="matrix" values="0 0 0 0 0 0 0 0 0 0 0 0 0 0 0 0 0 0 127 0" result="hardAlpha"/>
<feOffset dy="4"/>
<feGaussianBlur stdDeviation="2"/>
<feColorMatrix type="matrix" values="0 0 0 0 0 0 0 0 0 0 0 0 0 0 0 0 0 0 0.09 0"/>
<feBlend mode="normal" in2="effect1_dropShadow_20480_59435" result="effect2_dropShadow_20480_59435"/>
<feColorMatrix in="SourceAlpha" type="matrix" values="0 0 0 0 0 0 0 0 0 0 0 0 0 0 0 0 0 0 127 0" result="hardAlpha"/>
<feOffset dy="8"/>
<feGaussianBlur stdDeviation="2.5"/>
<feColorMatrix type="matrix" values="0 0 0 0 0 0 0 0 0 0 0 0 0 0 0 0 0 0 0.05 0"/>
<feBlend mode="normal" in2="effect2_dropShadow_20480_59435" result="effect3_dropShadow_20480_59435"/>
<feBlend mode="normal" in="SourceGraphic" in2="effect3_dropShadow_20480_59435" result="shape"/>
</filter>
<filter id="filter1_ddd_20480_59435" x="5" y="5.66602" width="70" height="80.667" filterUnits="userSpaceOnUse" color-interpolation-filters="sRGB">
<feFlood flood-opacity="0" result="BackgroundImageFix"/>
<feColorMatrix in="SourceAlpha" type="matrix" values="0 0 0 0 0 0 0 0 0 0 0 0 0 0 0 0 0 0 127 0" result="hardAlpha"/>
<feOffset dy="1"/>
<feGaussianBlur stdDeviation="1"/>
<feColorMatrix type="matrix" values="0 0 0 0 0 0 0 0 0 0 0 0 0 0 0 0 0 0 0.1 0"/>
<feBlend mode="normal" in2="BackgroundImageFix" result="effect1_dropShadow_20480_59435"/>
<feColorMatrix in="SourceAlpha" type="matrix" values="0 0 0 0 0 0 0 0 0 0 0 0 0 0 0 0 0 0 127 0" result="hardAlpha"/>
<feOffset dy="4"/>
<feGaussianBlur stdDeviation="2"/>
<feColorMatrix type="matrix" values="0 0 0 0 0 0 0 0 0 0 0 0 0 0 0 0 0 0 0.09 0"/>
<feBlend mode="normal" in2="effect1_dropShadow_20480_59435" result="effect2_dropShadow_20480_59435"/>
<feColorMatrix in="SourceAlpha" type="matrix" values="0 0 0 0 0 0 0 0 0 0 0 0 0 0 0 0 0 0 127 0" result="hardAlpha"/>
<feOffset dy="8"/>
<feGaussianBlur stdDeviation="2.5"/>
<feColorMatrix type="matrix" values="0 0 0 0 0 0 0 0 0 0 0 0 0 0 0 0 0 0 0.05 0"/>
<feBlend mode="normal" in2="effect2_dropShadow_20480_59435" result="effect3_dropShadow_20480_59435"/>
<feBlend mode="normal" in="SourceGraphic" in2="effect3_dropShadow_20480_59435" result="shape"/>
</filter>
<filter id="filter2_d_20480_59435" x="-2.01953" y="-4.76562" width="84" height="90" filterUnits="userSpaceOnUse" color-interpolation-filters="sRGB">
<feFlood flood-opacity="0" result="BackgroundImageFix"/>
<feColorMatrix in="SourceAlpha" type="matrix" values="0 0 0 0 0 0 0 0 0 0 0 0 0 0 0 0 0 0 127 0" result="hardAlpha"/>
<feMorphology radius="9" operator="dilate" in="SourceAlpha" result="effect1_dropShadow_20480_59435"/>
<feOffset/>
<feGaussianBlur stdDeviation="5"/>
<feComposite in2="hardAlpha" operator="out"/>
<feColorMatrix type="matrix" values="0 0 0 0 0 0 0 0 0 0 0 0 0 0 0 0 0 0 0.22 0"/>
<feBlend mode="normal" in2="BackgroundImageFix" result="effect1_dropShadow_20480_59435"/>
<feBlend mode="normal" in="SourceGraphic" in2="effect1_dropShadow_20480_59435" result="shape"/>
</filter>
<linearGradient id="paint0_linear_20480_59435" x1="40" y1="73.3327" x2="40" y2="6.66602" gradientUnits="userSpaceOnUse">
<stop stop-color="#379B94"/>
<stop offset="1" stop-color="#0090DA"/>
</linearGradient>
</defs>
</svg>
