<svg width="24" height="25" viewBox="0 0 24 25" fill="none" xmlns="http://www.w3.org/2000/svg">
<path d="M16.2366 14.5165L16.4894 14.1628C17.2781 13.0511 17.7331 11.7473 17.8342 10.3931C17.9252 9.03883 17.6421 7.68458 17.0152 6.48192C16.3883 5.27926 15.4378 4.26862 14.275 3.56117C13.1123 2.86383 11.7877 2.51011 10.4227 2.5C9.02734 2.5 7.65221 2.88404 6.44898 3.6016C5.64009 4.10691 4.9323 4.76383 4.37619 5.55213C3.80996 6.33032 3.41562 7.20957 3.19318 8.14947C2.97073 9.08936 2.9404 10.0495 3.10218 10.9995C3.25384 11.9495 3.59762 12.8489 4.1133 13.6676C5.15475 15.3149 6.79276 16.467 8.70378 16.9117C10.6148 17.3564 12.5865 17.0229 14.2548 16.0021L14.5885 15.7899L20.5945 21.5L22 20.1053L16.2366 14.5165ZM15.2862 11.8787C15.0233 12.5154 14.6391 13.0915 14.1436 13.5766C13.6482 14.0718 13.0718 14.4457 12.4348 14.7085C11.7978 14.9713 11.1305 15.0926 10.4227 15.0926H10.3519C8.95656 15.0926 7.62188 14.567 6.61076 13.617C5.56931 12.6367 4.96264 11.3128 4.89186 9.88777C4.88175 9.16011 5.01319 8.46277 5.28619 7.79574C5.54909 7.12872 5.94342 6.54255 6.45909 6.03723C6.96465 5.53192 7.56121 5.14787 8.21844 4.875C8.88578 4.61223 9.58345 4.48085 10.3013 4.50106C10.9586 4.49096 11.6967 4.63245 12.3539 4.90532C13.0111 5.16809 13.5976 5.56223 14.1032 6.05745C14.6087 6.56277 15.0031 7.14894 15.2761 7.80585C15.5491 8.46277 15.6906 9.15 15.6906 9.86755C15.6906 10.5851 15.5491 11.242 15.2862 11.8787Z" fill="#333333"/>
</svg>
