<svg width="24" height="24" viewBox="0 0 24 24" fill="none" xmlns="http://www.w3.org/2000/svg">
<path d="M13.7677 22.2291L12.7074 21.2091L15.7188 18.2793L6.07172 9.00527L3.0603 11.935L2 10.9151L3.41373 9.51062L2 8.14752L4.14644 6.08066L3.08614 5.06686L4.14644 4.04377L5.23257 5.03896L7.35318 3L8.76691 4.36L10.2323 3L11.2926 4.02L8.23573 6.96941L17.8818 16.2445L20.9397 13.294L22 14.314L20.5863 15.7226L22 17.0826L19.8298 19.1701L20.8901 20.1901L19.8298 21.2101L18.7695 20.1901L16.6479 22.2291L15.2279 20.8701L13.7677 22.2291Z" fill="#40A900"/>
</svg>
