<svg width="24" height="24" viewBox="0 0 24 24" fill="none" xmlns="http://www.w3.org/2000/svg">
<path d="M12.3687 13.0111C10.7357 13.0076 9.17053 12.3575 8.01556 11.203C6.86058 10.0485 6.20981 8.48364 6.20557 6.85062V3.73828H7.69385V6.85129C7.69385 8.09115 8.18637 9.28022 9.06308 10.1569C9.93979 11.0336 11.1289 11.5262 12.3687 11.5262C13.6086 11.5262 14.7976 11.0336 15.6743 10.1569C16.5511 9.28022 17.0436 8.09115 17.0436 6.85129V3.73828H18.5319V6.85062C18.5297 8.48429 17.8796 10.0504 16.7242 11.2053C15.5688 12.3603 14.0024 13.0097 12.3687 13.0111Z" fill="#0061A0"/>
<path d="M9.80461 22.4549C8.9059 22.4549 8.044 22.0979 7.40851 21.4624C6.77303 20.8269 6.41602 19.965 6.41602 19.0663C6.41602 18.1676 6.77303 17.3057 7.40851 16.6702C8.044 16.0347 8.9059 15.6777 9.80461 15.6777H18.6774V17.1132H9.80461C9.2933 17.1233 8.80639 17.3337 8.44862 17.6992C8.09085 18.0646 7.8908 18.5559 7.8915 19.0673C7.8922 19.5787 8.0936 20.0694 8.45237 20.4339C8.81114 20.7983 9.29862 21.0074 9.80996 21.0161C10.3226 21.0077 10.8119 20.7998 11.1739 20.4367C11.5359 20.0736 11.7422 19.5837 11.7491 19.071V18.5513H13.1872V19.071C13.1874 19.5155 13.1001 19.9558 12.93 20.3665C12.7599 20.7772 12.5106 21.1504 12.1961 21.4646C11.8817 21.7789 11.5084 22.028 11.0976 22.1978C10.6867 22.3676 10.2465 22.4548 9.80193 22.4543L9.80461 22.4549Z" fill="#0061A0"/>
<path d="M13.0875 12.2891H11.6494V16.3981H13.0875V12.2891Z" fill="#0061A0"/>
<path d="M10.0334 2.19231C9.81454 1.97212 9.55416 1.79754 9.26734 1.6787C8.98053 1.55987 8.67298 1.49913 8.36252 1.50001C7.73626 1.50107 7.13597 1.75032 6.69314 2.19315C6.25031 2.63598 6.00106 3.23627 6 3.86253C6.00033 4.25094 6.09642 4.63328 6.27976 4.9757C6.46311 5.31812 6.72804 5.61005 7.05112 5.82565C7.37421 6.04125 7.74546 6.17387 8.13202 6.21177C8.51858 6.24966 8.90852 6.19167 9.26732 6.04291C9.62612 5.89415 9.94271 5.65923 10.1891 5.35893C10.4354 5.05864 10.6039 4.70224 10.6797 4.32128C10.7554 3.94033 10.7361 3.54657 10.6234 3.17487C10.5106 2.80318 10.308 2.46501 10.0334 2.1903V2.19231Z" fill="#0090DA"/>
<path d="M16.3742 1.5C15.7479 1.50088 15.1475 1.75008 14.7047 2.19294C14.2618 2.63581 14.0126 3.23621 14.0117 3.86252C14.0117 4.32978 14.1503 4.78655 14.4099 5.17506C14.6695 5.56358 15.0384 5.86639 15.4701 6.0452C15.9018 6.22401 16.3769 6.2708 16.8351 6.17964C17.2934 6.08848 17.7144 5.86347 18.0448 5.53307C18.3752 5.20267 18.6002 4.78171 18.6914 4.32342C18.7825 3.86514 18.7357 3.39012 18.5569 2.95842C18.3781 2.52673 18.0753 2.15775 17.6868 1.89816C17.2983 1.63856 16.8415 1.5 16.3742 1.5Z" fill="#0090DA"/>
<path d="M20.5109 16.1623C20.2923 15.9424 20.0322 15.768 19.7458 15.6493C19.4593 15.5306 19.1521 15.4699 18.842 15.4707C18.2959 15.4713 17.7668 15.6612 17.3449 16.0081C16.9231 16.355 16.6345 16.8374 16.5284 17.3731C16.4223 17.9089 16.5052 18.4648 16.7629 18.9463C17.0207 19.4278 17.4374 19.8051 17.9421 20.0138C18.4468 20.2226 19.0083 20.2499 19.5309 20.0911C20.0534 19.9324 20.5048 19.5974 20.8082 19.1432C21.1115 18.689 21.248 18.1437 21.1944 17.6002C21.1408 17.0567 20.9004 16.5485 20.5142 16.1623H20.5109Z" fill="#0090DA"/>
</svg>
