<svg width="25" height="24" viewBox="0 0 25 24" fill="none" xmlns="http://www.w3.org/2000/svg">
<path d="M12.5 22C9.84865 21.9974 7.30664 20.9431 5.43185 19.0684C3.55706 17.1936 2.50265 14.6514 2.5 12C2.50318 9.34881 3.55776 6.80729 5.43243 4.93262C7.30711 3.05794 9.84881 2.00318 12.5 2C15.1512 2.00318 17.6929 3.05794 19.5676 4.93262C21.4422 6.80729 22.4968 9.34881 22.5 12C22.4974 14.6514 21.4429 17.1936 19.5681 19.0684C17.6934 20.9431 15.1514 21.9974 12.5 22ZM7.827 10.7998L6.741 11.9766L11.441 16.3096L18.258 8.76758L17.07 7.69629L11.339 14.0371L7.827 10.7998Z" fill="#D9D9D6"/>
</svg>
