<svg width="82" height="82" viewBox="0 0 82 82" fill="none" xmlns="http://www.w3.org/2000/svg">
<circle cx="41" cy="41" r="34" stroke="#00ACA0" stroke-opacity="0.14" stroke-width="14"/>
<circle cx="41" cy="41" r="27" fill="#00ACA0"/>
<path d="M41.0001 49.3327C38.7906 49.3305 36.6723 48.452 35.11 46.8896C33.5476 45.3273 32.669 43.2088 32.6667 40.9993C32.6694 38.79 33.5482 36.6721 35.1104 35.1099C36.6727 33.5476 38.7908 32.6687 41.0001 32.666C43.2094 32.6687 45.3275 33.5476 46.8897 35.1099C48.452 36.6721 49.3308 38.79 49.3334 40.9993C49.3312 43.2088 48.4525 45.3273 46.8902 46.8896C45.3279 48.452 43.2095 49.3305 41.0001 49.3327ZM37.1059 39.9992L36.2009 40.9798L40.1176 44.5907L45.7984 38.3057L44.8084 37.4129L40.0326 42.6969L37.1059 39.9992Z" fill="white"/>
</svg>
