<svg width="24" height="24" viewBox="0 0 24 24" fill="none" xmlns="http://www.w3.org/2000/svg">
<path d="M-0.00244141 18.8496L6.19775 13.6875C6.62782 13.2656 7.16473 12.969 7.75049 12.8281C8.33624 12.6872 8.94904 12.7085 9.52393 12.8887L13.7329 13.6523C14.2095 13.7449 14.6333 14.0152 14.9185 14.4082C15.2036 14.8012 15.3289 15.2877 15.269 15.7695L9.35693 16.4551C9.85693 16.5551 14.8569 17.7969 14.8569 17.7969L19.644 13.3457C19.9035 13.1013 20.209 12.9123 20.5435 12.7891C20.8779 12.6658 21.2344 12.6113 21.5903 12.6289C21.9463 12.6466 22.2951 12.7369 22.6157 12.8926C22.9363 13.0483 23.2216 13.2663 23.4556 13.5352L24.0024 14.1738L17.1431 20.4434C16.6321 20.8571 16.0414 21.1608 15.4077 21.3359C14.774 21.5111 14.1113 21.5535 13.4604 21.4609L6.72998 20.7129C5.60528 20.5094 4.44516 20.7387 3.48291 21.3555L2.31689 22.3555L-0.00244141 18.8496ZM15.1431 12.5508L12.0435 9.4668C11.4326 8.85459 11.0163 8.07493 10.8481 7.22656C10.68 6.3782 10.767 5.49818 11.0981 4.69922C11.4293 3.90026 11.9895 3.21891 12.7085 2.73828C13.4275 2.25766 14.2733 2.00051 15.1382 2C16.0035 1.99956 16.8492 2.25586 17.5688 2.73633C18.2885 3.21679 18.8498 3.89987 19.1812 4.69922C19.5125 5.49857 19.5989 6.37787 19.4302 7.22656C19.2614 8.07525 18.8448 8.85496 18.2329 9.4668L15.1431 12.5508ZM13.5103 7.34961C13.5563 7.70352 13.7225 8.03125 13.981 8.27734C14.2394 8.52344 14.5744 8.6745 14.9302 8.70313V9.41016H15.5962V8.69727C15.9252 8.6721 16.2332 8.52441 16.4604 8.28516C16.6877 8.04591 16.8175 7.73221 16.8257 7.40234C16.8257 6.75034 16.3957 6.29686 15.6187 6.13086L15.019 5.99219C14.719 5.92219 14.561 5.76888 14.561 5.54688C14.561 5.30288 14.7613 5.03516 15.2183 5.03516C15.2348 5.03026 15.2518 5.02837 15.269 5.0293C15.4393 5.03126 15.6036 5.0931 15.7319 5.20508C15.8602 5.31706 15.9443 5.47022 15.9692 5.63867L16.7788 5.41211C16.7204 5.12714 16.575 4.86693 16.3628 4.66797C16.1506 4.46901 15.8824 4.34075 15.5942 4.30078V3.57617H14.9282V4.2832C14.5921 4.31255 14.2786 4.46529 14.0474 4.71094C13.8161 4.95658 13.6834 5.27798 13.6743 5.61523C13.6859 5.92689 13.8086 6.22476 14.021 6.45313C14.2334 6.68149 14.5206 6.82528 14.8306 6.85938L15.436 6.98438C15.755 7.05438 15.936 7.22017 15.936 7.45117C15.936 7.75117 15.6675 7.95117 15.2515 7.95117C15.2222 7.95321 15.1919 7.95321 15.1626 7.95117C14.9479 7.94781 14.7427 7.86314 14.5874 7.71484C14.4321 7.56654 14.338 7.3667 14.3247 7.15234L13.5103 7.34961Z" fill="#A4CE4E"/>
<path d="M-0.00244141 18.8489L6.19775 13.6868C6.62782 13.2649 7.16473 12.9684 7.75049 12.8275C8.33624 12.6866 8.94904 12.7078 9.52393 12.888L13.7329 13.6517C14.2095 13.7443 14.6333 14.0146 14.9185 14.4075C15.2036 14.8005 15.3289 15.2871 15.269 15.7689L9.35693 16.4544C9.85693 16.5544 14.8569 17.7962 14.8569 17.7962L19.644 13.345C19.9035 13.1006 20.209 12.9116 20.5435 12.7884C20.8779 12.6652 21.2344 12.6106 21.5903 12.6282C21.9463 12.6459 22.2951 12.7362 22.6157 12.8919C22.9363 13.0476 23.2216 13.2656 23.4556 13.5345L24.0024 14.1732L17.1431 20.4427C16.6321 20.8564 16.0414 21.1601 15.4077 21.3353C14.774 21.5104 14.1113 21.5528 13.4604 21.4603L6.72998 20.7122C5.60528 20.5087 4.44516 20.738 3.48291 21.3548L2.31689 22.3548L-0.00244141 18.8489Z" fill="#0090DA"/>
</svg>
