<svg width="24" height="24" viewBox="0 0 24 24" fill="none" xmlns="http://www.w3.org/2000/svg">
<rect width="24" height="24" fill="white"/>
<path d="M12.226 10.9491C13.6741 10.9491 14.848 9.77517 14.848 8.32708C14.848 6.87899 13.6741 5.70508 12.226 5.70508C10.7779 5.70508 9.604 6.87899 9.604 8.32708C9.604 9.77517 10.7779 10.9491 12.226 10.9491Z" fill="#0090DA"/>
<path d="M8.39307 16.9999H16.0574C15.869 15.2164 15.4835 13.4581 14.9076 11.7559H9.54328C8.96781 13.4583 8.58216 15.2165 8.39307 16.9999Z" fill="#0090DA"/>
<path d="M9.604 11.7559L12.2258 14.1762L14.848 11.7559H9.604Z" fill="#0061A0"/>
<path fill-rule="evenodd" clip-rule="evenodd" d="M21.9967 20.7615H21.9973V21.7615H18.0552V20.7615H20.9967L20.9967 17.4453H21.9967L21.9967 20.7615Z" fill="white"/>
<path d="M21.9973 20.7615H22.4973V20.2615H21.9973V20.7615ZM21.9967 20.7615H21.4967V21.2615H21.9967V20.7615ZM21.9973 21.7615V22.2615H22.4973V21.7615H21.9973ZM18.0552 21.7615H17.5552V22.2615H18.0552V21.7615ZM18.0552 20.7615V20.2615H17.5552V20.7615H18.0552ZM20.9967 20.7615V21.2615H21.4967V20.7615H20.9967ZM20.9967 17.4453V16.9453H20.4967V17.4453L20.9967 17.4453ZM21.9967 17.4453L22.4967 17.4453V16.9453H21.9967V17.4453ZM21.9973 20.2615H21.9967V21.2615H21.9973V20.2615ZM22.4973 21.7615V20.7615H21.4973V21.7615H22.4973ZM18.0552 22.2615H21.9973V21.2615H18.0552V22.2615ZM17.5552 20.7615V21.7615H18.5552V20.7615H17.5552ZM20.9967 20.2615H18.0552V21.2615H20.9967V20.2615ZM20.4967 17.4453L20.4967 20.7615H21.4967L21.4967 17.4453L20.4967 17.4453ZM21.9967 16.9453H20.9967V17.9453H21.9967V16.9453ZM22.4967 20.7615L22.4967 17.4453L21.4967 17.4453L21.4967 20.7615H22.4967Z" fill="#007ABC"/>
<path fill-rule="evenodd" clip-rule="evenodd" d="M1.99741 20.7617H1.99685V21.7617H5.93896V20.7617H2.99741L2.99741 17.4455H1.99741L1.99741 20.7617Z" fill="white"/>
<path d="M1.99685 20.7617V20.2617H1.49685V20.7617H1.99685ZM1.99741 20.7617V21.2617H2.49741V20.7617H1.99741ZM1.99685 21.7617H1.49685V22.2617H1.99685V21.7617ZM5.93896 21.7617V22.2617H6.43896V21.7617H5.93896ZM5.93896 20.7617H6.43896V20.2617H5.93896V20.7617ZM2.99741 20.7617L2.49741 20.7617V21.2617H2.99741V20.7617ZM2.99741 17.4455H3.49741V16.9455H2.99741V17.4455ZM1.99741 17.4455V16.9455H1.49741V17.4455H1.99741ZM1.99685 21.2617H1.99741V20.2617H1.99685V21.2617ZM2.49685 21.7617V20.7617H1.49685V21.7617H2.49685ZM5.93896 21.2617H1.99685V22.2617H5.93896V21.2617ZM5.43896 20.7617V21.7617H6.43896V20.7617H5.43896ZM2.99741 21.2617H5.93896V20.2617H2.99741V21.2617ZM2.49741 17.4455L2.49741 20.7617L3.49741 20.7617L3.49741 17.4455H2.49741ZM1.99741 17.9455H2.99741V16.9455H1.99741V17.9455ZM2.49741 20.7617L2.49741 17.4455H1.49741L1.49741 20.7617L2.49741 20.7617Z" fill="#007ABC"/>
<path fill-rule="evenodd" clip-rule="evenodd" d="M21.9962 2.88104H21.9968V1.88104H18.0547V2.88104H20.9962L20.9962 6.19727H21.9962L21.9962 2.88104Z" fill="white"/>
<path d="M21.9968 2.88104H22.4968V3.38104H21.9968V2.88104ZM21.9962 2.88104H21.4962V2.38104H21.9962V2.88104ZM21.9968 1.88104V1.38104H22.4968V1.88104H21.9968ZM18.0547 1.88104H17.5547V1.38104H18.0547V1.88104ZM18.0547 2.88104V3.38104H17.5547V2.88104H18.0547ZM20.9962 2.88104V2.38104H21.4962V2.88104H20.9962ZM20.9962 6.19727V6.69727H20.4962V6.19727L20.9962 6.19727ZM21.9962 6.19727L22.4962 6.19727V6.69727H21.9962V6.19727ZM21.9968 3.38104H21.9962V2.38104H21.9968V3.38104ZM22.4968 1.88104V2.88104H21.4968V1.88104H22.4968ZM18.0547 1.38104H21.9968V2.38104H18.0547V1.38104ZM17.5547 2.88104V1.88104H18.5547V2.88104H17.5547ZM20.9962 3.38104H18.0547V2.38104H20.9962V3.38104ZM20.4962 6.19727L20.4962 2.88104H21.4962L21.4962 6.19727L20.4962 6.19727ZM21.9962 6.69727H20.9962V5.69727H21.9962V6.69727ZM22.4962 2.88104L22.4962 6.19727L21.4962 6.19727L21.4962 2.88104H22.4962Z" fill="#007ABC"/>
<path fill-rule="evenodd" clip-rule="evenodd" d="M1.99595 2.88086H1.99538V1.88086H5.9375V2.88086H2.99595L2.99595 6.19708H1.99595L1.99595 2.88086Z" fill="white"/>
<path d="M1.99538 2.88086V3.38086H1.49538V2.88086H1.99538ZM1.99595 2.88086V2.38086H2.49595V2.88086H1.99595ZM1.99538 1.88086H1.49538V1.38086H1.99538V1.88086ZM5.9375 1.88086V1.38086H6.4375V1.88086H5.9375ZM5.9375 2.88086H6.4375V3.38086H5.9375V2.88086ZM2.99595 2.88086L2.49595 2.88086V2.38086H2.99595V2.88086ZM2.99595 6.19708H3.49595V6.69708H2.99595V6.19708ZM1.99595 6.19708V6.69708H1.49595V6.19708H1.99595ZM1.99538 2.38086H1.99595V3.38086H1.99538V2.38086ZM2.49538 1.88086V2.88086H1.49538V1.88086H2.49538ZM5.9375 2.38086H1.99538V1.38086H5.9375V2.38086ZM5.4375 2.88086V1.88086H6.4375V2.88086H5.4375ZM2.99595 2.38086H5.9375V3.38086H2.99595V2.38086ZM2.49595 6.19708L2.49595 2.88086L3.49595 2.88086L3.49595 6.19708H2.49595ZM1.99595 5.69708H2.99595V6.69708H1.99595V5.69708ZM2.49595 2.88086L2.49595 6.19708H1.49595L1.49595 2.88086L2.49595 2.88086Z" fill="#007ABC"/>
</svg>
