<svg width="114" height="114" viewBox="0 0 114 114" fill="none" xmlns="http://www.w3.org/2000/svg">
<circle cx="57" cy="57" r="50" stroke="#DD2224" stroke-opacity="0.14" stroke-width="14"/>
<circle cx="57" cy="57" r="43" fill="#DD2224"/>
<path d="M43.3819 47.8C46.7659 47.8 49.2139 49.744 49.2139 52.552C49.2139 55.312 46.7659 57.304 43.3819 57.304C40.0219 57.304 37.5739 55.312 37.5739 52.552C37.5739 49.744 40.0219 47.8 43.3819 47.8ZM43.3819 50.392C41.7739 50.392 40.6219 51.16 40.6219 52.552C40.6219 53.92 41.7739 54.688 43.3819 54.688C45.0139 54.688 46.1659 53.92 46.1659 52.552C46.1659 51.16 45.0139 50.392 43.3819 50.392ZM41.8939 59.512H45.0859V68.464H41.8939V59.512ZM51.6139 46.912H54.7819V69.136H51.6139V46.912ZM36.6379 61.192L36.2539 58.6C40.1419 58.6 45.6379 58.552 50.3419 57.832L50.5579 60.16C45.7339 61.12 40.4779 61.168 36.6379 61.192ZM73.068 46.912H76.26V60.328H73.068V46.912ZM70.284 53.416H74.364V56.008H70.284V53.416ZM61.452 61.264H76.26V68.896H61.452V61.264ZM73.14 63.784H64.596V66.376H73.14V63.784ZM57.732 48.832H70.716V51.352H57.732V48.832ZM64.236 52.072C67.332 52.072 69.54 53.728 69.54 56.08C69.54 58.456 67.332 60.064 64.236 60.064C61.14 60.064 58.908 58.456 58.908 56.08C58.908 53.728 61.14 52.072 64.236 52.072ZM64.236 54.448C62.868 54.448 61.956 55 61.956 56.08C61.956 57.16 62.868 57.736 64.236 57.736C65.58 57.736 66.492 57.16 66.492 56.08C66.492 55 65.58 54.448 64.236 54.448ZM62.628 46.72H65.82V50.632H62.628V46.72Z" fill="white"/>
</svg>
