<svg width="114" height="114" viewBox="0 0 114 114" fill="none" xmlns="http://www.w3.org/2000/svg">
<circle cx="57" cy="57" r="50" stroke="#00ACA0" stroke-opacity="0.14" stroke-width="14"/>
<circle cx="57" cy="57" r="43" fill="#00ACA0"/>
<path d="M48.2299 52.288H52.4539V54.88H48.2299V52.288ZM51.5899 46.912H54.7819V60.112H51.5899V46.912ZM47.2459 60.592C51.9499 60.592 54.8539 62.2 54.8539 64.888C54.8539 67.6 51.9499 69.16 47.2459 69.16C42.5419 69.16 39.6379 67.6 39.6379 64.888C39.6379 62.2 42.5419 60.592 47.2459 60.592ZM47.2459 63.016C44.3659 63.016 42.8299 63.616 42.8299 64.888C42.8299 66.136 44.3659 66.736 47.2459 66.736C50.1499 66.736 51.6859 66.136 51.6859 64.888C51.6859 63.616 50.1499 63.016 47.2459 63.016ZM41.3179 49.144H43.9099V50.536C43.9099 54.784 41.9419 58.672 37.6939 60.112L36.0619 57.592C39.7339 56.344 41.3179 53.392 41.3179 50.536V49.144ZM41.9899 49.144H44.5579V50.536C44.5579 53.152 46.0699 55.864 49.5739 57.04L48.0139 59.56C43.8859 58.192 41.9899 54.496 41.9899 50.536V49.144ZM36.9259 48.256H48.8779V50.8H36.9259V48.256ZM62.532 48.112H65.148V50.08C65.148 54.496 63.228 58.384 59.004 59.848L57.3 57.328C61.02 56.08 62.532 53.104 62.532 50.08V48.112ZM63.18 48.112H65.772V50.392C65.772 53.056 67.26 55.648 70.74 56.728L69.084 59.2C65.076 57.856 63.18 54.4 63.18 50.392V48.112ZM71.964 46.912H75.156V60.04H71.964V46.912ZM74.268 52.048H78.108V54.688H74.268V52.048ZM67.908 60.544C72.516 60.544 75.42 62.152 75.42 64.84C75.42 67.552 72.516 69.136 67.908 69.136C63.276 69.136 60.372 67.552 60.372 64.84C60.372 62.152 63.276 60.544 67.908 60.544ZM67.908 63.016C65.076 63.016 63.54 63.616 63.54 64.84C63.54 66.088 65.076 66.664 67.908 66.664C70.74 66.664 72.252 66.088 72.252 64.84C72.252 63.616 70.74 63.016 67.908 63.016Z" fill="white"/>
</svg>
