<svg width="24" height="24" viewBox="0 0 24 24" fill="none" xmlns="http://www.w3.org/2000/svg">
<path d="M12.0051 6C12.0051 6 8.96875 8.5857 8.96875 11.7742C8.96875 14.9626 12.0051 17.5483 12.0051 17.5483C12.0051 17.5483 15.0415 14.9626 15.0415 11.7742C15.0415 8.5857 12.0051 6 12.0051 6Z" fill="#007ABC"/>
<path d="M9.44516 16.614C8.966 15.9631 8.5656 15.2578 8.25231 14.5128C7.8754 13.649 7.68084 12.7167 7.68084 11.7743C7.68084 10.8318 7.8754 9.89954 8.25231 9.03576L8.27343 8.98646C7.3022 8.57731 6.27645 8.31211 5.22861 8.19922C5.22861 8.19922 4.28785 12.0735 6.15953 14.655C7.09064 15.8196 8.36174 16.6649 9.79583 17.0731C9.68035 16.9281 9.56205 16.7745 9.44516 16.614Z" fill="#007ABC"/>
<path d="M9.38381 18.2966C8.6136 18.0508 7.87518 17.7147 7.18399 17.2953C6.37199 16.8175 5.66733 16.1773 5.11409 15.4147C4.56086 14.6521 4.17095 13.7835 3.96877 12.8633C2.92612 13.1086 1.92563 13.5073 1 14.0463C1 14.0463 2.54917 17.7235 5.58272 18.6938C7.03181 19.0797 8.56535 19.0024 9.96827 18.4727C9.77955 18.4192 9.59084 18.3614 9.38381 18.2966Z" fill="#007ABC"/>
<path d="M18.7786 8.19727C17.7308 8.31018 16.7051 8.5754 15.7338 8.98453L15.755 9.03383C16.132 9.89759 16.3265 10.8299 16.3265 11.7723C16.3265 12.7148 16.132 13.6471 15.755 14.5108C15.4417 15.2559 15.0412 15.9612 14.5621 16.6121C14.4452 16.774 14.3269 16.9261 14.2114 17.0712C15.6455 16.663 16.9166 15.8177 17.8477 14.6531C19.7194 12.0716 18.7786 8.19727 18.7786 8.19727Z" fill="#007ABC"/>
<path d="M20.0308 12.8613C19.8286 13.7815 19.4387 14.6501 18.8855 15.4127C18.3322 16.1753 17.6276 16.8156 16.8156 17.2934C16.1244 17.7128 15.386 18.0489 14.6157 18.2947C14.4143 18.3609 14.2186 18.4186 14.0312 18.4693C15.4342 18.999 16.9677 19.0764 18.4168 18.6904C21.456 17.7243 22.9995 14.0429 22.9995 14.0429C22.0738 13.5045 21.0733 13.1062 20.0308 12.8613Z" fill="#007ABC"/>
</svg>
