<svg width="22" height="22" viewBox="0 0 22 22" fill="none" xmlns="http://www.w3.org/2000/svg">
<path d="M18.8513 17.1342L16.4936 19.4604C16.325 19.6214 16.1269 19.7464 15.9108 19.8281C15.6946 19.9099 15.4648 19.9467 15.2347 19.9364C13.2478 19.8763 11.3686 18.9068 9.82796 17.9096C7.246 16.1475 5.08795 13.8066 3.51675 11.0634C2.95792 9.91301 2.30184 8.4446 2.36452 7.16012C2.35321 6.92566 2.38995 6.69138 2.47239 6.4724C2.55483 6.25342 2.68112 6.05463 2.8431 5.88886L5.20088 3.54771C5.28965 3.45508 5.39876 3.38563 5.51906 3.34516C5.63937 3.30469 5.76737 3.29438 5.89236 3.3151C6.01735 3.33581 6.13568 3.38695 6.23745 3.46423C6.33921 3.54152 6.42146 3.64269 6.47729 3.75928L8.37405 7.33683C8.46533 7.53142 8.49375 7.7508 8.45519 7.96309C8.41664 8.17539 8.31311 8.36954 8.15966 8.51733L7.2927 9.38046C7.23805 9.45065 7.20702 9.53711 7.20425 9.6269C7.63967 10.91 8.41274 12.0445 9.43783 12.9045C10.3294 13.7178 11.2877 14.8201 12.5313 15.081C12.6048 15.1106 12.684 15.1221 12.7626 15.1145C12.8411 15.1068 12.9168 15.0803 12.9836 15.0371L13.994 14.0153C14.1623 13.8731 14.3656 13.7815 14.5814 13.7504C14.7973 13.7193 15.0173 13.75 15.2172 13.8392H15.2347L18.6563 15.8479C18.7663 15.9059 18.8614 15.9898 18.9339 16.0927C19.0063 16.1957 19.054 16.3147 19.073 16.4401C19.092 16.5656 19.0818 16.6938 19.0433 16.8145C19.0048 16.9351 18.939 17.0447 18.8513 17.1342Z" fill="#0090DA"/>
<path d="M18.1238 10.8862C17.739 7.12228 14.7087 4.0881 10.832 3.48643V2.0625C15.4984 2.684 19.1542 6.3415 19.5479 10.8862H18.1238Z" fill="#A4CE4E"/>
<path d="M14.096 11.1566C13.9234 10.3391 13.523 9.59064 12.9436 9.00226C12.3641 8.41387 11.6305 8.0109 10.832 7.84235V6.4082C12.0034 6.58858 13.0888 7.14538 13.9323 7.99859C14.7758 8.85179 15.3339 9.95745 15.5265 11.1566H14.096Z" fill="#A4CE4E"/>
</svg>
