<svg width="82" height="82" viewBox="0 0 82 82" fill="none" xmlns="http://www.w3.org/2000/svg">
<circle cx="41" cy="41" r="34" stroke="#DD2224" stroke-opacity="0.14" stroke-width="14"/>
<circle cx="41" cy="41" r="27" fill="#DD2224"/>
<circle cx="41" cy="41" r="8" fill="white"/>
<path d="M38.5 37.5C38.2239 37.2239 37.7761 37.2239 37.5 37.5C37.2239 37.7761 37.2239 38.2239 37.5 38.5L43.5 44.5C43.7761 44.7761 44.2239 44.7761 44.5 44.5C44.7761 44.2239 44.7761 43.7761 44.5 43.5L38.5 37.5Z" fill="#DD2224"/>
<path d="M43.5 37.5C43.7761 37.2239 44.2239 37.2239 44.5 37.5C44.7761 37.7761 44.7761 38.2239 44.5 38.5L38.5 44.5C38.2239 44.7761 37.7761 44.7761 37.5 44.5C37.2239 44.2239 37.2239 43.7761 37.5 43.5L43.5 37.5Z" fill="#DD2224"/>
</svg>
