<svg width="24" height="24" viewBox="0 0 24 24" fill="none" xmlns="http://www.w3.org/2000/svg">
<path d="M5.5 4.5C5.22386 4.22386 4.77614 4.22386 4.5 4.5C4.22386 4.77614 4.22386 5.22386 4.5 5.5L18.5 19.5C18.7761 19.7761 19.2239 19.7761 19.5 19.5C19.7761 19.2239 19.7761 18.7761 19.5 18.5L5.5 4.5Z" fill="#333333"/>
<path d="M18.5 4.5C18.7761 4.22386 19.2239 4.22386 19.5 4.5C19.7761 4.77614 19.7761 5.22386 19.5 5.5L5.5 19.5C5.22386 19.7761 4.77614 19.7761 4.5 19.5C4.22386 19.2239 4.22386 18.7761 4.5 18.5L18.5 4.5Z" fill="#333333"/>
</svg>
