<svg width="24" height="24" viewBox="0 0 24 24" fill="none" xmlns="http://www.w3.org/2000/svg">
<path d="M11.9124 1C9.01316 1.10608 6.258 2.30931 4.18907 4.37295C3.63989 4.89822 3.25796 5.57806 3.09231 6.32518C2.92667 7.07231 2.98487 7.85261 3.25945 8.56593L4.58716 12.0302C5.17221 10.5352 6.17974 9.24907 7.48309 8.33344C8.78644 7.41781 10.3275 6.91354 11.9124 6.88402C13.5375 6.91579 15.1151 7.44519 16.4384 8.40277C17.7616 9.36034 18.7688 10.7014 19.3277 12.25L20.7394 8.55604C21.0133 7.84639 21.0729 7.07006 20.9106 6.32593C20.7482 5.5818 20.3713 4.90353 19.8277 4.37751C17.7051 2.2767 14.8768 1.06987 11.9124 1Z" fill="#40A900"/>
<path d="M15.5854 8.5C14.033 10.8262 11.8129 12.6114 9.22644 13.6136C9.14744 13.64 9.06207 13.6392 8.98353 13.6114C8.90498 13.5837 8.83764 13.5304 8.79191 13.4599C8.74561 13.3897 8.72301 13.3062 8.72752 13.2218C8.73202 13.1375 8.76338 13.0569 8.81689 12.9921C9.0031 12.7703 9.17504 12.5366 9.33166 12.2924C9.38845 12.2025 9.41729 12.0974 9.41446 11.9907C9.41162 11.884 9.37724 11.7806 9.31577 11.694C9.25455 11.6077 9.16885 11.5424 9.0701 11.5068C8.97135 11.4713 8.86426 11.4672 8.76314 11.495C7.82091 11.7224 6.9589 12.2094 6.27227 12.9025C5.58563 13.5956 5.10107 14.4677 4.87207 15.4226C4.98486 16.6591 5.40897 17.8454 6.1037 18.8677C6.79842 19.89 7.74044 20.714 8.83934 21.2606C9.93825 21.8071 11.1571 22.0579 12.3791 21.9888C13.601 21.9197 14.7849 21.5331 15.8171 20.8661C16.8494 20.1991 17.6954 19.274 18.2739 18.1797C18.8524 17.0854 19.144 15.8586 19.1208 14.6171C19.0975 13.3755 18.7601 12.1608 18.141 11.0896C17.5219 10.0185 16.6419 9.12671 15.5854 8.5Z" fill="#0090DA"/>
<path d="M12.6279 2.5V3.39212H13.4971V4.59561H12.6279V5.5H11.4095V4.59561H10.4971V3.39212H11.4095V2.5H12.6279Z" fill="white"/>
</svg>
