<svg width="40" height="40" viewBox="0 0 40 40" fill="none" xmlns="http://www.w3.org/2000/svg">
<path d="M36.1469 38.7465H5.10938V29.3377C5.10767 26.8584 6.02708 24.4668 7.68919 22.627C9.35129 20.7873 11.6376 19.6306 14.1044 19.3815L20.6219 25.4952L27.0869 19.3765C29.5642 19.6158 31.8639 20.7681 33.5385 22.6093C35.2131 24.4505 36.1429 26.8489 36.1469 29.3377V38.7465Z" fill="#0090DA"/>
<path d="M20.5206 18.0725C25.166 18.0725 28.9319 14.3067 28.9319 9.66125C28.9319 5.01585 25.166 1.25 20.5206 1.25C15.8752 1.25 12.1094 5.01585 12.1094 9.66125C12.1094 14.3067 15.8752 18.0725 20.5206 18.0725Z" fill="#0090DA"/>
<path d="M16.7623 38.7499L14.1836 19.4549L20.6198 25.4899L27.0686 19.3911L24.4811 38.7499H16.7623Z" fill="#0061A0"/>
<path d="M32.4492 30.9375H26.9805V32.5H32.4492V30.9375Z" fill="white"/>
</svg>
