<svg width="24" height="24" viewBox="0 0 24 24" fill="none" xmlns="http://www.w3.org/2000/svg">
<path d="M18.0291 5.37695H5.9502V22.4985H18.0291V5.37695Z" fill="#0061A0"/>
<path d="M11.9895 8.75922C13.9108 8.75922 15.4683 7.21376 15.4683 5.30734C15.4683 3.40093 13.9108 1.85547 11.9895 1.85547C10.0682 1.85547 8.51074 3.40093 8.51074 5.30734C8.51074 7.21376 10.0682 8.75922 11.9895 8.75922Z" fill="#40A900"/>
<path d="M20.9281 11.0625H18.0288V22.5009H20.9281V11.0625Z" fill="#0090DA"/>
<path d="M5.95058 11.0625H3.05127V22.5009H5.95058V11.0625Z" fill="#0090DA"/>
<path d="M12.642 3.58203H11.3374V7.03391H12.642V3.58203Z" fill="white"/>
<path d="M13.7293 4.66211H10.2505V5.95689H13.7293V4.66211Z" fill="white"/>
<path d="M16.0727 12.7305H12.9805V15.7991H16.0727V12.7305Z" fill="white"/>
<path d="M10.999 12.7305H7.90674V15.7991H10.999V12.7305Z" fill="white"/>
<path d="M16.0727 17.7637H12.9805V20.8323H16.0727V17.7637Z" fill="white"/>
<path d="M10.999 17.7637H7.90674V20.8323H10.999V17.7637Z" fill="white"/>
</svg>
