<svg width="22" height="22" viewBox="0 0 22 22" fill="none" xmlns="http://www.w3.org/2000/svg">
<path d="M3.10254 5.50466V10.3488C3.10254 10.3488 3.10254 17.43 10.9999 20.7699V1.23047L3.10254 5.50466Z" fill="#008BD0"/>
<path d="M18.8988 5.50466V10.3488C18.8988 10.3488 18.8988 17.43 11.0015 20.7699V1.23047L18.8988 5.50466Z" fill="#A4CE4E"/>
<path d="M14.6596 11.8918C15.0758 11.4723 15.3093 10.9053 15.3093 10.3144C15.3093 9.72342 15.0758 9.15642 14.6596 8.73689C14.2403 8.32017 13.673 8.08628 13.0818 8.08628C12.4906 8.08628 11.9234 8.32017 11.504 8.73689L10.7478 9.49314L9.99151 8.73689C9.5721 8.31996 9.00474 8.08594 8.41335 8.08594C7.82197 8.08594 7.25461 8.31996 6.8352 8.73689C6.41819 9.15598 6.18408 9.72314 6.18408 10.3144C6.18408 10.9056 6.41819 11.4727 6.8352 11.8918L10.7416 15.7996L14.6596 11.8918Z" fill="white"/>
</svg>
